<?xml version="1.0" encoding="UTF-8" standalone="no"?>
<svg
   xmlns:dc="http://purl.org/dc/elements/1.1/"
   xmlns:cc="http://creativecommons.org/ns#"
   xmlns:rdf="http://www.w3.org/1999/02/22-rdf-syntax-ns#"
   xmlns:svg="http://www.w3.org/2000/svg"
   xmlns="http://www.w3.org/2000/svg"
   xmlns:sodipodi="http://sodipodi.sourceforge.net/DTD/sodipodi-0.dtd"
   xmlns:inkscape="http://www.inkscape.org/namespaces/inkscape"
   viewBox="0 0 512 512"
   id="vector"
   version="1.1"
   sodipodi:docname="trash-fill.svg"
   inkscape:version="1.0.1 (3bc2e813f5, 2020-09-07)">
  <metadata
     id="metadata8">
    <rdf:RDF>
      <cc:Work
         rdf:about="">
        <dc:format>image/svg+xml</dc:format>
        <dc:type
           rdf:resource="http://purl.org/dc/dcmitype/StillImage" />
      </cc:Work>
    </rdf:RDF>
  </metadata>
  <defs
     id="defs6" />
  <sodipodi:namedview
     pagecolor="#ffffff"
     bordercolor="#666666"
     borderopacity="1"
     objecttolerance="10"
     gridtolerance="10"
     guidetolerance="10"
     inkscape:pageopacity="0"
     inkscape:pageshadow="2"
     inkscape:window-width="1920"
     inkscape:window-height="1046"
     id="namedview4"
     showgrid="false"
     inkscape:zoom="1.6796875"
     inkscape:cx="256"
     inkscape:cy="256"
     inkscape:window-x="-11"
     inkscape:window-y="-11"
     inkscape:window-maximized="1"
     inkscape:current-layer="vector" />
  <path
     id="path"
     d="M 424 64 L 336 64 L 336 48 C 336 21.49 314.51 0 288 0 L 224 0 C 197.49 0 176 21.49 176 48 L 176 64 L 88 64 C 65.909 64 48 81.909 48 104 L 48 136 C 48 144.837 55.163 152 64 152 L 448 152 C 456.837 152 464 144.837 464 136 L 464 104 C 464 81.909 446.091 64 424 64 Z M 208 48 C 208 39.18 215.18 32 224 32 L 288 32 C 296.82 32 304 39.18 304 48 L 304 64 L 208 64 Z M 78.364 184 C 75.509 184 73.234 186.386 73.37 189.238 L 86.57 466.28 C 87.79 491.92 108.85 512 134.51 512 L 377.49 512 C 403.15 512 424.21 491.92 425.43 466.28 L 438.63 189.238 C 438.766 186.386 436.491 184 433.636 184 Z M 320 224 C 320 215.16 327.16 208 336 208 C 344.84 208 352 215.16 352 224 L 352 432 C 352 440.84 344.84 448 336 448 C 327.16 448 320 440.84 320 432 Z M 240 224 C 240 215.16 247.16 208 256 208 C 264.84 208 272 215.16 272 224 L 272 432 C 272 440.84 264.84 448 256 448 C 247.16 448 240 440.84 240 432 Z M 160 224 C 160 215.16 167.16 208 176 208 C 184.84 208 192 215.16 192 224 L 192 432 C 192 440.84 184.84 448 176 448 C 167.16 448 160 440.84 160 432 Z"
     fill="#5f30e2"
     stroke-width="1"
     style="fill:#b91768;fill-opacity:1" />
</svg>
